<svg width="68" height="68" viewBox="0 0 68 68" fill="none" xmlns="http://www.w3.org/2000/svg">
<g filter="url(#filter0_d_0_200)">
<circle cx="34" cy="30" r="30" fill="#2C2C2C"/>
<circle cx="34" cy="30" r="22" fill="#7A66CC"/>
<path d="M34 20C28.48 20 24 24.48 24 30C24 35.52 28.48 40 34 40C39.52 40 44 35.52 44 30C44 24.48 39.52 20 34 20ZM38.64 26.8C38.49 28.38 37.84 32.22 37.51 33.99C37.37 34.74 37.09 34.99 36.83 35.02C36.25 35.07 35.81 34.64 35.25 34.27C34.37 33.69 33.87 33.33 33.02 32.77C32.03 32.12 32.67 31.76 33.24 31.18C33.39 31.03 35.95 28.7 36 28.49C36.0069 28.4582 36.006 28.4252 35.9973 28.3938C35.9886 28.3624 35.9724 28.3337 35.95 28.31C35.89 28.26 35.81 28.28 35.74 28.29C35.65 28.31 34.25 29.24 31.52 31.08C31.12 31.35 30.76 31.49 30.44 31.48C30.08 31.47 29.4 31.28 28.89 31.11C28.26 30.91 27.77 30.8 27.81 30.45C27.83 30.27 28.08 30.09 28.55 29.9C31.47 28.63 33.41 27.79 34.38 27.39C37.16 26.23 37.73 26.03 38.11 26.03C38.19 26.03 38.38 26.05 38.5 26.15C38.6 26.23 38.63 26.34 38.64 26.42C38.63 26.48 38.65 26.66 38.64 26.8Z" fill="white"/>
</g>
<defs>
<filter id="filter0_d_0_200" x="0" y="0" width="68" height="68" filterUnits="userSpaceOnUse" color-interpolation-filters="sRGB">
<feFlood flood-opacity="0" result="BackgroundImageFix"/>
<feColorMatrix in="SourceAlpha" type="matrix" values="0 0 0 0 0 0 0 0 0 0 0 0 0 0 0 0 0 0 127 0" result="hardAlpha"/>
<feOffset dy="4"/>
<feGaussianBlur stdDeviation="2"/>
<feComposite in2="hardAlpha" operator="out"/>
<feColorMatrix type="matrix" values="0 0 0 0 0 0 0 0 0 0 0 0 0 0 0 0 0 0 0.25 0"/>
<feBlend mode="normal" in2="BackgroundImageFix" result="effect1_dropShadow_0_200"/>
<feBlend mode="normal" in="SourceGraphic" in2="effect1_dropShadow_0_200" result="shape"/>
</filter>
</defs>
</svg>
