<svg width="60" height="60" viewBox="0 0 60 60" fill="none" xmlns="http://www.w3.org/2000/svg">
<circle cx="30" cy="30" r="30" fill="#2C2C2C"/>
<circle cx="30" cy="30" r="22" fill="#7A66CC"/>
<path d="M34.6 23.82C33.9164 23.0396 33.5397 22.0374 33.54 21H30.45V33.4C30.4262 34.071 30.1429 34.7066 29.6598 35.1729C29.1767 35.6393 28.5315 35.8999 27.86 35.9C26.44 35.9 25.26 34.74 25.26 33.3C25.26 31.58 26.92 30.29 28.63 30.82V27.66C25.18 27.2 22.16 29.88 22.16 33.3C22.16 36.63 24.92 39 27.85 39C30.99 39 33.54 36.45 33.54 33.3V27.01C34.793 27.9099 36.2974 28.3926 37.84 28.39V25.3C37.84 25.3 35.96 25.39 34.6 23.82Z" fill="white"/>
</svg>
